<?xml version="1.0" encoding="UTF-8"?>
<svg id="Layer_1" xmlns="http://www.w3.org/2000/svg" version="1.1" viewBox="0 0 80 40">
  <!-- Generator: Adobe Illustrator 29.8.1, SVG Export Plug-In . SVG Version: 2.1.1 Build 2)  -->
  <defs>
    <style>
      .st0, .st1 {
        fill: #231f20;
      }

      .st1 {
        font-family: Georgia, Georgia;
        font-size: 12px;
      }
    </style>
  </defs>
  <g>
    <path class="st0" d="M15.4,37.21s.04-.83-.04-2.13c-.04,1.3.04,2.13.04,2.13Z"/>
    <path class="st0" d="M30.05,19.35C14.44,19.13,15.42,1.09,15.42,1.09l-.02-.4s.98,18.04-14.62,18.26c12.27.17,14.28,11.36,14.59,16.13.06-2.16.45-5.6,2.02-8.73-1.04-1.71-2.81-3.15-5.89-3.19,7.8-.11,7.31-9.13,7.31-9.13v.2s-.23,4.74,2.61,7.39c1.96-1.34,4.54-2.22,7.95-2.27h.68Z"/>
    <path class="st0" d="M17.38,26.36c1.05,1.74,1.34,3.75,1.41,4.93.06-2.31.83-7.83,7-7.92h.34c-2.14-.03-3.64-.74-4.72-1.74-1.85,1.27-3.13,2.95-4.03,4.73Z"/>
    <path class="st0" d="M18.81,32.3s.02-.4-.02-1.01c-.01.61.02,1.01.02,1.01Z"/>
  </g>
  <text class="st1" transform="translate(23.64 17.49)"><tspan x="0" y="0">Unique</tspan></text>
  <text class="st1" transform="translate(35.64 28.5)"><tspan x="0" y="0">Exports</tspan></text>
</svg>